<svg width="26" height="26" viewBox="0 0 26 26" fill="none" xmlns="http://www.w3.org/2000/svg">
<path id="Vector" d="M16.0442 0.336914C15.0493 0.124016 14.034 0.0111006 13.0147 0C11.9702 0.0108333 10.954 0.124583 9.95811 0.336914C9.74574 0.38244 9.55354 0.490464 9.40842 0.645865C9.26329 0.801267 9.17249 0.996268 9.14874 1.20357L8.91249 3.23698C8.87862 3.52378 8.77517 3.79901 8.61042 4.04063C8.44566 4.28226 8.22417 4.48356 7.96368 4.62844C7.70319 4.77332 7.41093 4.85775 7.11029 4.87498C6.80964 4.8922 6.50897 4.84174 6.23232 4.72763L4.28804 3.90755C4.09069 3.82429 3.87122 3.80187 3.65999 3.84341C3.44877 3.88494 3.25623 3.98837 3.10904 4.13939C1.70289 5.58136 0.655932 7.30992 0.0467989 9.19526C-0.0173757 9.39375 -0.0155071 9.60645 0.0521456 9.80387C0.119798 10.0013 0.249882 10.1736 0.424351 10.297L2.15046 11.5157C2.39326 11.687 2.59064 11.9105 2.72667 12.1683C2.86271 12.4262 2.93358 12.711 2.93358 12.9999C2.93358 13.2888 2.86271 13.5737 2.72667 13.8315C2.59064 14.0893 2.39326 14.3128 2.15046 14.4841L0.424351 15.706C0.250106 15.8293 0.120168 16.0015 0.0525257 16.1987C-0.0151169 16.3959 -0.0171183 16.6084 0.0467989 16.8067C0.654673 18.6937 1.70087 20.4241 3.10678 21.868C3.25384 22.0192 3.44631 22.1228 3.65754 22.1646C3.86878 22.2063 4.08832 22.184 4.28578 22.1009L6.23911 21.2787C6.51414 21.1636 6.81355 21.112 7.11318 21.1282C7.41282 21.1444 7.70429 21.2278 7.96409 21.3718C8.49085 21.6643 8.84241 22.1789 8.91136 22.7596L9.14648 24.793C9.1701 24.9975 9.25897 25.1901 9.40099 25.3444C9.543 25.4987 9.73124 25.6073 9.94002 25.6553C11.9514 26.1149 14.0474 26.1149 16.0588 25.6553C16.2676 25.6073 16.4559 25.4987 16.5979 25.3444C16.7399 25.1901 16.8288 24.9975 16.8524 24.793L17.0875 22.7563C17.1194 22.4693 17.2215 22.1936 17.3856 21.9516C17.5496 21.7095 17.7709 21.508 18.0315 21.3634C18.2921 21.2188 18.5847 21.1351 18.8854 21.1193C19.1861 21.1034 19.4864 21.1558 19.762 21.2722L21.7142 22.0944C21.9117 22.1776 22.1312 22.1998 22.3425 22.1581C22.5537 22.1163 22.7462 22.0127 22.8932 21.8615C24.2984 20.4192 25.3445 18.6907 25.9532 16.8056C26.0174 16.6071 26.0155 16.3944 25.9479 16.197C25.8802 15.9996 25.7501 15.8273 25.5756 15.7039L23.8518 14.4841C23.6089 14.3129 23.4115 14.0894 23.2753 13.8317C23.1392 13.5739 23.0682 13.2891 23.0681 13.0002C23.068 12.7113 23.1388 12.4264 23.2747 12.1685C23.4106 11.9107 23.6079 11.6871 23.8507 11.5157L25.5745 10.2948C25.7486 10.1714 25.8783 9.99917 25.9457 9.80199C26.0131 9.6048 26.015 9.3924 25.9509 9.19418C25.3422 7.30891 24.2956 5.58033 22.8898 4.1383C22.7426 3.98729 22.5501 3.88386 22.3389 3.84232C22.1277 3.80079 21.9082 3.82321 21.7108 3.90647L19.7665 4.72655C19.5246 4.82976 19.2627 4.88292 18.9979 4.88255C18.5243 4.88171 18.0678 4.71345 17.7157 4.40999C17.3636 4.10654 17.1407 3.68924 17.0898 3.23806L16.8524 1.20249C16.8287 0.995612 16.7382 0.800986 16.5935 0.645801C16.4488 0.490616 16.2571 0.382625 16.0453 0.336914H16.0442ZM13 17.3332C11.8008 17.3332 10.6507 16.8767 9.80276 16.064C8.9548 15.2514 8.47842 14.1492 8.47842 12.9999C8.47842 11.8506 8.9548 10.7484 9.80276 9.9358C10.6507 9.12314 11.8008 8.6666 13 8.6666C14.1992 8.6666 15.3493 9.12314 16.1972 9.9358C17.0452 10.7484 17.5216 11.8506 17.5216 12.9999C17.5216 14.1492 17.0452 15.2514 16.1972 16.064C15.3493 16.8767 14.1992 17.3332 13 17.3332Z" fill="white"/>
</svg>
