<svg width="27" height="26" viewBox="0 0 27 26" fill="none" xmlns="http://www.w3.org/2000/svg">
<g id="Group">
<g id="Group_2">
<g id="Group_3">
<path id="Vector" d="M10.3634 0H3.2332C1.92236 0 0.856445 1.06008 0.856445 2.36376V9.45498C0.856445 10.7586 1.92236 11.8187 3.2332 11.8187H10.3634C11.6742 11.8187 12.7402 10.7587 12.7402 9.45498V2.36376C12.7401 1.06008 11.6742 0 10.3634 0Z" fill="white"/>
<path id="Vector_2" d="M24.6232 0H17.493C16.1821 0 15.1162 1.06008 15.1162 2.36376V9.45498C15.1162 10.7586 16.1821 11.8187 17.493 11.8187H24.6232C25.934 11.8187 26.9999 10.7587 26.9999 9.45498V2.36376C26.9999 1.06008 25.934 0 24.6232 0Z" fill="white"/>
<path id="Vector_3" d="M10.3634 14.1812H3.2332C1.92236 14.1812 0.856445 15.2412 0.856445 16.5449V23.6361C0.856445 24.9397 1.92236 25.9999 3.2332 25.9999H10.3634C11.6742 25.9999 12.7402 24.9398 12.7402 23.6361V16.5449C12.7401 15.2412 11.6742 14.1812 10.3634 14.1812Z" fill="white"/>
<path id="Vector_4" d="M24.0292 18.9087H22.2467V17.1359C22.2467 16.8092 21.9809 16.5449 21.6525 16.5449H20.4641C20.1357 16.5449 19.8699 16.8092 19.8699 17.1359V18.9087H18.0874C17.7589 18.9087 17.4932 19.173 17.4932 19.4996V20.6815C17.4932 21.0081 17.7589 21.2724 18.0874 21.2724H19.8699V23.0452C19.8699 23.3719 20.1357 23.6362 20.4641 23.6362H21.6525C21.9809 23.6362 22.2467 23.3719 22.2467 23.0452V21.2724H24.0292C24.3577 21.2724 24.6234 21.0081 24.6234 20.6815V19.4996C24.6234 19.173 24.3577 18.9087 24.0292 18.9087Z" fill="white"/>
</g>
</g>
</g>
</svg>
