<svg width="25" height="26" viewBox="0 0 25 26" fill="none" xmlns="http://www.w3.org/2000/svg">
<g id="Group 628278">
<path id="Vector" d="M24.4814 23.5326L22.7043 18.2H20.7543L21.8372 23.4H2.77144L3.85434 18.2H1.90434L0.125942 23.5326C-0.325158 24.8898 0.474342 26 1.90434 26H22.7043C24.1343 26 24.9338 24.8898 24.4814 23.5326ZM18.8043 6.5C18.8043 4.77609 18.1195 3.12279 16.9005 1.90381C15.6816 0.684819 14.0283 0 12.3043 0C10.5804 0 8.92714 0.684819 7.70815 1.90381C6.48916 3.12279 5.80434 4.77609 5.80434 6.5C5.80434 12.7075 12.3043 19.5 12.3043 19.5C12.3043 19.5 18.8043 12.7075 18.8043 6.5ZM8.79434 6.578C8.79434 6.11712 8.88514 5.66076 9.06155 5.23498C9.23796 4.8092 9.49653 4.42234 9.82248 4.09651C10.1484 3.77068 10.5354 3.51226 10.9612 3.33601C11.3871 3.15976 11.8435 3.06913 12.3043 3.0693C13.2351 3.0693 14.1277 3.43903 14.7858 4.09716C15.444 4.7553 15.8137 5.64791 15.8137 6.57865C15.8137 7.50939 15.444 8.402 14.7858 9.06013C14.1277 9.71827 13.2351 10.088 12.3043 10.088C11.3734 10.088 10.4807 9.7182 9.8224 9.05994C9.16415 8.40169 8.79434 7.50891 8.79434 6.578Z" fill="white"/>
</g>
</svg>
