<svg width="10" height="14" viewBox="0 0 10 14" fill="none" xmlns="http://www.w3.org/2000/svg">
<path id="Vector" d="M9.712 7.21423C9.80082 7.15308 9.87344 7.07125 9.92362 6.97579C9.97379 6.88033 10 6.77411 10 6.66627C10 6.55843 9.97379 6.45221 9.92362 6.35675C9.87344 6.2613 9.80082 6.17947 9.712 6.11831L1.04593 0.118724C0.945973 0.0492782 0.828897 0.00855442 0.707421 0.000975578C0.585946 -0.00660327 0.464716 0.0192537 0.356904 0.075736C0.249092 0.132219 0.158821 0.217168 0.0958983 0.321353C0.0329759 0.425538 -0.000191442 0.544974 2.72802e-07 0.666686L7.97302e-07 12.6659C0.000502374 12.7873 0.0340962 12.9063 0.0971694 13.01C0.160243 13.1138 0.250409 13.1984 0.357972 13.2548C0.465534 13.3111 0.586424 13.3371 0.707639 13.3299C0.828855 13.3227 0.945811 13.2825 1.04593 13.2138L9.712 7.21423Z" fill="#666666"/>
</svg>
