<svg width="27" height="22" viewBox="0 0 27 22" fill="none" xmlns="http://www.w3.org/2000/svg">
<g id="Group 31232">
<g id="Group">
<g id="Group_2">
<path id="Vector" d="M21.4617 1.89387H7.97842C7.55978 1.89387 7.22282 1.55876 7.22282 1.14242V0.766688C7.22282 0.345263 6.88076 0 6.45191 0H2.39826C1.54567 0 0.856445 0.685449 0.856445 1.53338V14.4401L2.83732 4.86415C2.9088 4.51381 3.21512 4.26502 3.5776 4.26502H23.0086V3.42725C23.0035 2.5844 22.3143 1.89387 21.4617 1.89387Z" fill="white"/>
</g>
</g>
<g id="Group_3">
<g id="Group_4">
<path id="Vector_2" d="M25.455 5.76782H4.1912L1.21988 20.1673C1.12288 20.6395 1.48536 21.0813 1.97037 21.0813H24.097C24.8832 21.0813 25.5418 20.4923 25.6286 19.7154L26.9917 7.46875C27.0887 6.5599 26.374 5.76782 25.455 5.76782Z" fill="white"/>
</g>
</g>
</g>
</svg>
