<svg width="27" height="21" viewBox="0 0 27 21" fill="none" xmlns="http://www.w3.org/2000/svg">
<g id="Group 31231">
<g id="Group">
<g id="Group_2">
<path id="Vector" d="M22.1292 5.04722H12.6974L10.8201 2.82955C10.756 2.75308 10.6599 2.71484 10.5638 2.71484H2.95809C1.79193 2.72759 0.856445 3.66436 0.856445 4.8178V18.4552C0.856445 19.615 1.80475 20.5518 2.97091 20.5581H22.1292C23.2954 20.5581 24.2373 19.615 24.2437 18.4552V7.15018C24.2373 5.99036 23.2954 5.05359 22.1292 5.04722Z" fill="white"/>
</g>
</g>
<g id="Group_3">
<g id="Group_4">
<path id="Vector_2" d="M24.8976 2.33238H15.4659L13.5885 0.114707C13.5244 0.0382357 13.4283 0 13.3322 0H5.72653C4.6693 0 3.77866 0.777458 3.6377 1.81619H10.577C10.9422 1.81619 11.2882 1.97551 11.5189 2.24953L13.1207 4.1422H22.1296C23.7955 4.1422 25.1475 5.48682 25.1475 7.1437V17.8178C26.2047 17.684 26.9993 16.7918 26.9993 15.734V4.42896C26.9993 3.27552 26.0574 2.33875 24.8976 2.33238Z" fill="white"/>
</g>
</g>
</g>
</svg>
