<svg width="140" height="43" viewBox="0 0 140 43" fill="none" xmlns="http://www.w3.org/2000/svg">
<g id="Group 632585">
<g id="H&#198;&#176;ng H&#195;&#160;">
<path d="M67.2599 26.8098H63.3755V20.8242H58.8844V26.8098H55V12.1269H58.8844V17.5702H63.3755V12.1269H67.2599V26.8098Z" fill="white"/>
<path d="M77.6319 26.8098V26.85L77.1426 25.3536L77.1524 25.3938H76.8882C76.5686 25.9227 76.1218 26.3244 75.5478 26.5989C74.9737 26.8734 74.3117 27.0107 73.5615 27.0107C72.3482 27.0107 71.4024 26.6458 70.724 25.916C70.0522 25.1862 69.7162 24.1618 69.7162 22.8428V15.431H73.542V21.6477C73.542 22.3909 73.6431 22.9533 73.8453 23.3349C74.054 23.7166 74.3932 23.9074 74.8629 23.9074C75.5021 23.9074 75.962 23.6496 76.2425 23.1341C76.5295 22.6185 76.673 21.7113 76.673 20.4124V15.431H80.5183V16.7768C80.8379 16.5893 81.0858 16.2244 81.2619 15.6821C81.4445 15.1398 81.5359 14.5037 81.5359 13.7739H85.2246L85.3714 13.9949C85.1887 14.9322 84.9767 15.6654 84.7354 16.1943C84.494 16.7232 84.1842 17.1752 83.8059 17.5501C83.4275 17.9251 82.9644 18.2364 82.4165 18.4841C81.8751 18.7319 81.2423 18.916 80.5183 19.0365V26.8098H77.6319Z" fill="white"/>
<path d="M92.5731 26.8098V20.6032C92.5731 19.8466 92.4655 19.2775 92.2502 18.8959C92.0415 18.5076 91.7023 18.3134 91.2327 18.3134C90.5869 18.3134 90.1205 18.5779 89.8335 19.1068C89.5465 19.6357 89.403 20.543 89.403 21.8285V26.8098H85.5772V15.431H88.4637L88.9431 16.8371H89.1681C89.4943 16.3014 89.9444 15.8997 90.5184 15.6319C91.0989 15.3641 91.7643 15.2302 92.5144 15.2302C93.7407 15.2302 94.6931 15.5951 95.3715 16.3249C96.0564 17.0547 96.3989 18.0824 96.3989 19.4081V26.8098H92.5731Z" fill="white"/>
<path d="M109.06 15.431V17.3292L107.544 17.9016C107.752 18.29 107.857 18.7419 107.857 19.2574C107.857 20.4827 107.436 21.4334 106.595 22.1097C105.76 22.7859 104.511 23.124 102.847 23.124C102.436 23.124 102.11 23.0972 101.869 23.0437C101.777 23.2178 101.732 23.3818 101.732 23.5358C101.732 23.73 101.885 23.8806 102.192 23.9877C102.498 24.0882 102.899 24.1384 103.395 24.1384H105.235C107.72 24.1384 108.963 25.213 108.963 27.3622C108.963 28.7481 108.385 29.8261 107.231 30.5961C106.083 31.366 104.468 31.751 102.387 31.751C100.815 31.751 99.602 31.4799 98.7475 30.9375C97.8995 30.4019 97.4755 29.6286 97.4755 28.6176C97.4755 27.2584 98.2974 26.3813 99.9412 25.9863C99.602 25.839 99.3052 25.6013 99.0508 25.2732C98.803 24.9452 98.679 24.6204 98.679 24.2991C98.679 23.9442 98.7736 23.6329 98.9628 23.3651C99.1519 23.0905 99.5466 22.7658 100.147 22.3909C99.5727 22.1298 99.1193 21.7213 98.7867 21.1656C98.4605 20.6099 98.2974 19.9337 98.2974 19.1369C98.2974 17.8983 98.7084 16.9375 99.5303 16.2546C100.352 15.5716 101.526 15.2302 103.053 15.2302C103.255 15.2302 103.604 15.2536 104.1 15.3005C104.595 15.3473 104.961 15.3909 105.195 15.431H109.06ZM100.704 28.2259C100.704 28.5473 100.874 28.8051 101.213 28.9992C101.552 29.2001 102.006 29.3005 102.573 29.3005C103.5 29.3005 104.24 29.18 104.794 28.939C105.355 28.7046 105.636 28.4 105.636 28.025C105.636 27.7238 105.466 27.5095 105.127 27.3823C104.788 27.2618 104.302 27.2015 103.669 27.2015H102.172C101.761 27.2015 101.412 27.2986 101.125 27.4928C100.845 27.6936 100.704 27.938 100.704 28.2259ZM101.908 19.157C101.908 20.322 102.303 20.9045 103.092 20.9045C103.457 20.9045 103.738 20.7606 103.933 20.4727C104.135 20.1848 104.237 19.7529 104.237 19.1771C104.237 17.9987 103.855 17.4095 103.092 17.4095C102.303 17.4095 101.908 17.992 101.908 19.157Z" fill="white"/>
<path d="M127.642 26.8098H123.757V20.8242H119.266V26.8098H115.382V12.1269H119.266V17.5702H123.757V12.1269H127.642V26.8098Z" fill="white"/>
<path d="M137.348 26.8098L136.615 25.3034H136.536C136.021 25.9595 135.496 26.4081 134.961 26.6491C134.426 26.8902 133.735 27.0107 132.887 27.0107C131.843 27.0107 131.021 26.6893 130.421 26.0466C129.821 25.4038 129.521 24.4999 129.521 23.3349C129.521 22.1231 129.932 21.2225 130.754 20.6333C131.576 20.0375 132.766 19.7027 134.325 19.629L136.174 19.5688V19.4081C136.174 18.4707 135.724 18.0021 134.824 18.0021C134.015 18.0021 132.988 18.2833 131.742 18.8457L130.636 16.2546C131.928 15.5716 133.559 15.2302 135.528 15.2302C136.951 15.2302 138.05 15.5917 138.826 16.3148C139.609 17.0379 140 18.0489 140 19.3478V26.8098H137.348ZM134.511 24.2388C134.974 24.2388 135.369 24.0882 135.695 23.7869C136.028 23.4856 136.194 23.0939 136.194 22.6118V21.728L135.313 21.7682C134.054 21.8151 133.425 22.2905 133.425 23.1943C133.425 23.8906 133.787 24.2388 134.511 24.2388ZM135.02 14.3464C134.57 14.0518 133.904 13.5898 133.024 12.9604C132.15 12.3244 131.406 11.7586 130.793 11.2632V11.0522H135C135.339 11.5209 136.001 12.3009 136.986 13.3923L137.564 14.0551V14.3464H135.02Z" fill="white"/>
</g>
<g id="Group 632367">
<path id="Star 1" d="M22.5 0.768555L30.4215 3.87401L38.4099 6.83109L41.6243 14.1799L45 21.4673L41.6243 28.7547L38.4099 36.1036L30.4215 39.0607L22.5 42.1661L14.5785 39.0607L6.5901 36.1036L3.37569 28.7547L0 21.4673L3.37569 14.1799L6.5901 6.83109L14.5785 3.87401L22.5 0.768555Z" fill="white"/>
<path id="Rectangle 3463908" d="M12.5285 5.72619L15.2893 4.71021H29.8027L37.6738 7.65458L39.0716 10.8322L32.1029 37.8042L29.5078 38.068H14.7643L7.30595 35.333L5.49902 31.0889L12.5285 5.72619Z" fill="#4C5BD4"/>
<path id="Rectangle 3463909" d="M35.5989 6.8501L37.6741 7.65864L39.0758 10.8322L32.2551 37.2916L30.1015 38.0721H14.7842L18.4623 24.4565L27.358 18.5409L35.5989 6.8501Z" fill="#1B9564"/>
<path id="H" d="M28.9679 33.18H23.7692L25.865 24.2457H18.6664L14.816 38.0812L9.66504 36.1817L16.5067 9.58692H22.3183L19.9171 18.5858H27.3608L31.0041 5.14038L35.6006 6.83658L28.9679 33.18Z" fill="white"/>
</g>
</g>
</svg>
