<svg width="29" height="22" viewBox="0 0 29 22" fill="none" xmlns="http://www.w3.org/2000/svg">
<g id="Group 31230">
<path id="Vector" d="M18.4437 4.87405C17.7953 4.87405 17.2732 4.38664 17.2732 3.79262V2.16794H12.5853V3.79262C12.5853 4.39172 12.0577 4.87405 11.4147 4.87405C10.7717 4.87405 10.2441 4.38664 10.2441 3.79262V2.16794C10.2441 0.97481 11.2938 0 12.5908 0H17.2787C18.5701 0 19.6253 0.969733 19.6253 2.16794V3.79262C19.6143 4.38664 19.0922 4.87405 18.4437 4.87405Z" fill="white"/>
<path id="Vector_2" d="M15.7553 14.4903C15.5465 14.5665 15.2387 14.6223 14.9255 14.6223C14.6122 14.6223 14.3045 14.5665 14.0242 14.47L0.856445 10.4185V18.684C0.856445 20.329 2.29632 21.6643 4.08243 21.6643H25.774C27.5546 21.6643 29 20.3341 29 18.684V10.4185L15.7553 14.4903Z" fill="white"/>
<path id="Vector_3" d="M28.9945 6.22954V8.71226L15.2058 12.9567C15.1123 12.9872 15.0189 13.0024 14.9255 13.0024C14.832 13.0024 14.7386 12.9923 14.6452 12.9567L0.856445 8.70719V6.22447C0.856445 4.57948 2.29632 3.24927 4.08243 3.24927H25.774C27.5546 3.24927 28.9945 4.57948 28.9945 6.22954Z" fill="white"/>
</g>
</svg>
