<svg width="31" height="25" viewBox="0 0 31 25" fill="none" xmlns="http://www.w3.org/2000/svg">
<g id="homeicon">
<g id="Group 31228">
<g id="Group">
<g id="Group_2">
<path id="Vector" d="M30.0697 10.9789L16.7389 0.350392C16.1527 -0.116797 15.2706 -0.116797 14.6844 0.350392L1.35359 10.9789C0.883499 11.3547 0.732606 11.9285 0.958945 12.4465C1.18528 12.9645 1.74823 13.2996 2.38082 13.2996H4.51073V23.9485C4.51073 24.37 4.89957 24.7153 5.38707 24.7153H12.6938C13.1755 24.7153 13.5701 24.3751 13.5701 23.9485V17.484H17.8648V23.9485C17.8648 24.37 18.2536 24.7153 18.7411 24.7153H26.042C26.5237 24.7153 26.9183 24.3751 26.9183 23.9485V13.2996H29.0483C29.6808 13.2996 30.238 12.9645 30.4701 12.4465C30.6907 11.9285 30.5398 11.3547 30.0697 10.9789Z" fill="white"/>
</g>
</g>
</g>
<g id="Group_3">
<g id="Group_4">
<path id="Vector_2" d="M26.6868 1.52808H20.8193L27.5631 6.8906V2.2898C27.5573 1.86831 27.1685 1.52808 26.6868 1.52808Z" fill="white"/>
</g>
</g>
</g>
</svg>
