<svg width="25" height="26" viewBox="0 0 25 26" fill="none" xmlns="http://www.w3.org/2000/svg">
<path id="Vector" d="M20.6767 17.9266C20.1329 17.9286 19.5952 18.0405 19.0958 18.2556C18.5963 18.4706 18.1455 18.7843 17.7703 19.1779L7.92873 14.2531C8.17083 13.5191 8.17083 12.7266 7.92873 11.9926L17.7864 6.97896C18.4925 7.72303 19.45 8.178 20.4728 8.25542C21.4957 8.33284 22.5108 8.0272 23.3208 7.39789C24.1309 6.76858 24.678 5.86057 24.8558 4.85034C25.0337 3.84011 24.8296 2.79984 24.2832 1.93172C23.7368 1.06359 22.8871 0.429642 21.8993 0.15308C20.9115 -0.123482 19.8562 -0.0228968 18.9385 0.435286C18.0207 0.893468 17.3061 1.67651 16.9335 2.63223C16.561 3.58794 16.5571 4.64804 16.9226 5.60648L7.16176 10.5716C6.6346 9.92694 5.92095 9.46105 5.11862 9.23785C4.3163 9.01465 3.46458 9.04506 2.68021 9.32492C1.89585 9.60477 1.21724 10.1204 0.737406 10.801C0.257571 11.4817 0 12.2941 0 13.1269C0 13.9597 0.257571 14.7721 0.737406 15.4528C1.21724 16.1334 1.89585 16.649 2.68021 16.9289C3.46458 17.2087 4.3163 17.2391 5.11862 17.0159C5.92095 16.7927 6.6346 16.3268 7.16176 15.6821L16.8983 20.5827C16.7338 21.0245 16.6491 21.4919 16.6481 21.9633C16.6481 22.7617 16.8848 23.5421 17.3284 24.206C17.7719 24.8698 18.4024 25.3872 19.14 25.6927C19.8776 25.9982 20.6893 26.0782 21.4723 25.9224C22.2553 25.7667 22.9746 25.3822 23.5392 24.8177C24.1037 24.2531 24.4882 23.5338 24.6439 22.7508C24.7997 21.9678 24.7198 21.1561 24.4142 20.4185C24.1087 19.6809 23.5913 19.0504 22.9275 18.6069C22.2636 18.1633 21.4832 17.9266 20.6848 17.9266H20.6767Z" fill="white"/>
</svg>
