<svg width="26" height="23" viewBox="0 0 26 23" fill="none" xmlns="http://www.w3.org/2000/svg">
<g id="Group 628277">
<path id="Vector" d="M3.23072 2.86186C3.45046 2.04071 3.93514 1.31507 4.60952 0.797588C5.2839 0.280109 6.11025 -0.000262116 6.9603 1.83877e-07H19.0408C19.8906 2.41735e-05 20.7167 0.280527 21.3908 0.797984C22.0649 1.31544 22.5494 2.04092 22.7691 2.86186L25.8604 14.4113C26.5474 16.9787 24.6124 19.4994 21.9547 19.4994H4.04579C1.38738 19.4994 -0.546959 16.9787 0.139418 14.4113L3.23137 2.86121L3.23072 2.86186ZM6.01263 20.7993C5.90593 20.7993 5.80028 20.8203 5.70171 20.8612C5.60313 20.902 5.51357 20.9618 5.43812 21.0373C5.36268 21.1127 5.30283 21.2023 5.262 21.3009C5.22117 21.3994 5.20015 21.5051 5.20015 21.6118C5.20015 21.7185 5.22117 21.8241 5.262 21.9227C5.30283 22.0213 5.36268 22.1109 5.43812 22.1863C5.51357 22.2617 5.60313 22.3216 5.70171 22.3624C5.80028 22.4033 5.90593 22.4243 6.01263 22.4243H19.9872C20.0939 22.4243 20.1995 22.4033 20.2981 22.3624C20.3967 22.3216 20.4862 22.2617 20.5617 22.1863C20.6371 22.1109 20.697 22.0213 20.7378 21.9227C20.7786 21.8241 20.7996 21.7185 20.7996 21.6118C20.7996 21.5051 20.7786 21.3994 20.7378 21.3009C20.697 21.2023 20.6371 21.1127 20.5617 21.0373C20.4862 20.9618 20.3967 20.902 20.2981 20.8612C20.1995 20.8203 20.0939 20.7993 19.9872 20.7993H6.01263Z" fill="white"/>
</g>
</svg>
