<svg width="28" height="29" viewBox="0 0 28 29" fill="none" xmlns="http://www.w3.org/2000/svg">
<path id="Vector" d="M26.0439 16.5784C25.3622 16.193 24.5746 16.0019 23.7781 16.0285C22.9815 16.0551 22.2106 16.2983 21.5602 16.7282C21.4328 16.8134 21.2818 16.8627 21.1252 16.8702C20.9686 16.8777 20.813 16.8431 20.6769 16.7705L16.6141 14.5834C16.5988 14.5748 16.5862 14.5626 16.5774 14.5481C16.5686 14.5336 16.564 14.5173 16.564 14.5006C16.564 14.484 16.5686 14.4676 16.5774 14.4531C16.5862 14.4386 16.5988 14.4264 16.6141 14.4178L20.6549 12.2428C20.7916 12.1696 20.948 12.1348 21.1054 12.1425C21.2627 12.1502 21.4144 12.2002 21.5421 12.2863C22.1916 12.721 22.9634 12.9685 23.7621 12.9984C24.5608 13.0282 25.3514 12.8391 26.0361 12.4543C26.9283 11.9405 27.5781 11.1298 27.8541 10.1861C28.1301 9.24241 28.0117 8.23615 27.5229 7.37077C27.0756 6.59931 26.3571 5.99518 25.4883 5.66005C24.6195 5.32492 23.6535 5.27926 22.7529 5.53075C21.8523 5.78224 21.072 6.31553 20.5434 7.04086C20.0148 7.76619 19.7701 8.63927 19.8506 9.51317C19.8653 9.65835 19.8352 9.80441 19.7638 9.93415C19.6924 10.0639 19.5828 10.1719 19.4478 10.2454L15.3863 12.4337C15.3708 12.4416 15.3533 12.4456 15.3357 12.4453C15.318 12.4451 15.3007 12.4407 15.2853 12.4324C15.27 12.4242 15.2572 12.4125 15.2481 12.3983C15.2391 12.3841 15.234 12.3681 15.2335 12.3516V7.97494C15.2343 7.8286 15.2801 7.68553 15.3655 7.56278C15.4509 7.44003 15.5723 7.34277 15.7153 7.28256C16.5626 6.91882 17.2513 6.29579 17.667 5.51679C18.0827 4.73779 18.2006 3.84961 18.001 2.99954C17.8015 2.14946 17.2965 1.38856 16.5698 0.843C15.8432 0.297441 14.9385 0 14.0057 0C13.073 0 12.1683 0.297441 11.4416 0.843C10.715 1.38856 10.21 2.14946 10.0104 2.99954C9.81088 3.84961 9.92875 4.73779 10.3445 5.51679C10.7602 6.29579 11.4488 6.91882 12.2962 7.28256C12.4394 7.34259 12.5611 7.43978 12.6467 7.56254C12.7324 7.68531 12.7784 7.82846 12.7793 7.97494V12.3516C12.7788 12.3682 12.7738 12.3845 12.7647 12.3988C12.7555 12.4131 12.7426 12.425 12.7271 12.4333C12.7116 12.4415 12.694 12.4459 12.6762 12.446C12.6583 12.4461 12.6407 12.4419 12.6251 12.4337L8.56492 10.2466C8.43006 10.1733 8.32048 10.0655 8.24912 9.93598C8.17775 9.80645 8.14757 9.66059 8.16214 9.51558C8.24266 8.64894 8.00329 7.78266 7.48373 7.06035C6.96416 6.33805 6.19561 5.80311 5.30549 5.54423C4.41537 5.28536 3.45716 5.31809 2.58971 5.63701C1.72227 5.95593 0.997706 6.54188 0.536152 7.2977C0.0745975 8.05352 -0.0962219 8.93382 0.052015 9.79265C0.200252 10.6515 0.658641 11.4372 1.35118 12.0197C2.04372 12.6021 2.92882 12.9462 3.85972 12.9949C4.79061 13.0436 5.7114 12.794 6.46941 12.2875C6.59718 12.2006 6.74915 12.1501 6.90702 12.1419C7.06488 12.1338 7.2219 12.1684 7.35916 12.2416L11.3999 14.4166C11.4152 14.4252 11.4279 14.4374 11.4366 14.4519C11.4454 14.4664 11.45 14.4827 11.45 14.4994C11.45 14.5161 11.4454 14.5324 11.4366 14.5469C11.4279 14.5614 11.4152 14.5736 11.3999 14.5822L7.33455 16.7717C7.1983 16.8446 7.04245 16.8793 6.88561 16.8718C6.72876 16.8643 6.57754 16.8149 6.44999 16.7294C5.7997 16.2998 5.02907 16.0567 4.23275 16.0301C3.43644 16.0035 2.64914 16.1944 1.96756 16.5796C1.07816 17.0942 0.430895 17.9042 0.156197 18.8464C-0.1185 19.7886 -0.000206884 20.793 0.487239 21.657C0.935779 22.4302 1.65665 23.0353 2.52805 23.3699C3.39945 23.7046 4.36796 23.7483 5.26993 23.4937C6.1719 23.2392 6.95204 22.7019 7.47852 21.9728C8.00501 21.2436 8.24556 20.3672 8.15955 19.4917C8.14373 19.3458 8.17317 19.1988 8.24435 19.0681C8.31553 18.9375 8.42545 18.8286 8.56104 18.7546L12.6238 16.5675C12.6394 16.5593 12.657 16.5551 12.6749 16.5552C12.6927 16.5553 12.7103 16.5597 12.7258 16.5679C12.7413 16.5762 12.7542 16.5881 12.7634 16.6024C12.7725 16.6167 12.7775 16.633 12.778 16.6496V21.0251C12.7772 21.1714 12.7314 21.3145 12.646 21.4372C12.5606 21.56 12.4391 21.6572 12.2962 21.7174C11.4488 22.0812 10.7602 22.7042 10.3445 23.4832C9.92875 24.2622 9.81088 25.1504 10.0104 26.0005C10.21 26.8505 10.715 27.6114 11.4416 28.157C12.1683 28.7026 13.073 29 14.0057 29C14.9385 29 15.8432 28.7026 16.5698 28.157C17.2965 27.6114 17.8015 26.8505 18.001 26.0005C18.2006 25.1504 18.0827 24.2622 17.667 23.4832C17.2513 22.7042 16.5626 22.0812 15.7153 21.7174C15.5722 21.6573 15.4506 21.5601 15.3649 21.4373C15.2793 21.3146 15.2332 21.1715 15.2322 21.0251V16.6496C15.2325 16.6331 15.2374 16.6168 15.2464 16.6025C15.2554 16.5882 15.2682 16.5763 15.2835 16.5679C15.2989 16.5595 15.3163 16.555 15.334 16.5547C15.3518 16.5544 15.3694 16.5584 15.385 16.5663L19.4478 18.7558C19.5834 18.8295 19.6934 18.9381 19.7646 19.0686C19.8358 19.1991 19.8652 19.346 19.8493 19.4917C19.7633 20.3672 20.0039 21.2436 20.5304 21.9728C21.0568 22.7019 21.837 23.2392 22.7389 23.4937C23.6409 23.7483 24.6094 23.7046 25.4808 23.3699C26.3522 23.0353 27.0731 22.4302 27.5216 21.657C28.0097 20.7931 28.1286 19.7887 27.8544 18.8463C27.5802 17.9038 26.9332 17.0934 26.0439 16.5784Z" fill="white"/>
</svg>
