<svg width="26" height="26" viewBox="0 0 26 26" fill="none" xmlns="http://www.w3.org/2000/svg">
<g id="fluent:key-16-filled">
<path id="Vector" d="M12.1875 18.6875V19.5C12.1875 19.7155 12.1019 19.9222 11.9495 20.0745C11.7972 20.2269 11.5905 20.3125 11.375 20.3125H9.75V21.125C9.75 21.556 9.57879 21.9693 9.27405 22.274C8.9693 22.5788 8.55598 22.75 8.125 22.75H4.875C4.44402 22.75 4.0307 22.5788 3.72595 22.274C3.4212 21.9693 3.25 21.556 3.25 21.125V19.0239C3.25009 18.5929 3.42136 18.1797 3.72612 17.875L10.0149 11.5863C9.62927 10.2769 9.66565 8.87936 10.1189 7.59183C10.5721 6.3043 11.4191 5.19211 12.5398 4.41297C13.6606 3.63384 14.9982 3.22729 16.3629 3.25098C17.7277 3.27467 19.0504 3.72739 20.1434 4.54496C21.2364 5.36252 22.0443 6.50343 22.4526 7.80592C22.8608 9.1084 22.8487 10.5064 22.4179 11.8015C21.9871 13.0967 21.1594 14.2234 20.0524 15.0219C18.9453 15.8203 17.615 16.25 16.25 16.25H14.6234V17.875C14.6234 18.0905 14.5378 18.2972 14.3854 18.4495C14.233 18.6019 14.0264 18.6875 13.8109 18.6875H12.1859H12.1875ZM17.875 9.75C18.306 9.75 18.7193 9.5788 19.024 9.27405C19.3288 8.9693 19.5 8.55598 19.5 8.125C19.5 7.69402 19.3288 7.2807 19.024 6.97595C18.7193 6.67121 18.306 6.5 17.875 6.5C17.444 6.5 17.0307 6.67121 16.726 6.97595C16.4212 7.2807 16.25 7.69402 16.25 8.125C16.25 8.55598 16.4212 8.9693 16.726 9.27405C17.0307 9.5788 17.444 9.75 17.875 9.75Z" fill="white"/>
</g>
</svg>
