<svg width="22" height="26" viewBox="0 0 22 26" fill="none" xmlns="http://www.w3.org/2000/svg">
<path id="Vector" d="M8.55187 0.0151166L21.0102 2.45263C21.1952 2.4888 21.3617 2.58811 21.4815 2.73356C21.6013 2.87901 21.6667 3.06155 21.6668 3.24996V22.75C21.6667 22.9384 21.6013 23.121 21.4815 23.2664C21.3617 23.4119 21.1952 23.5112 21.0102 23.5474L8.55187 25.9849C8.43418 26.0079 8.31285 26.0046 8.1966 25.9752C8.08034 25.9458 7.97203 25.891 7.87945 25.8148C7.78687 25.7386 7.71231 25.6428 7.66111 25.5343C7.60992 25.4259 7.58337 25.3075 7.58336 25.1875V0.812453C7.58337 0.692533 7.60992 0.574102 7.66111 0.465658C7.71231 0.357214 7.78687 0.261446 7.87945 0.185227C7.97203 0.109007 8.08034 0.0542264 8.1966 0.0248153C8.31285 -0.00459573 8.43418 -0.00790797 8.55187 0.0151166ZM11.9167 11.9167C11.6294 11.9167 11.3538 12.0308 11.1507 12.234C10.9475 12.4371 10.8334 12.7127 10.8334 13C10.8334 13.2873 10.9475 13.5629 11.1507 13.766C11.3538 13.9692 11.6294 14.0833 11.9167 14.0833C12.204 14.0833 12.4796 13.9692 12.6827 13.766C12.8859 13.5629 13.0001 13.2873 13.0001 13C13.0001 12.7127 12.8859 12.4371 12.6827 12.234C12.4796 12.0308 12.204 11.9167 11.9167 11.9167ZM6.50003 2.70829V23.2917H0.812503C0.616162 23.2917 0.426465 23.2206 0.278493 23.0915C0.130522 22.9625 0.0342858 22.7842 0.00758333 22.5897L0 22.4792V3.5208C8.27984e-06 3.32446 0.0711134 3.13476 0.200165 2.98679C0.329217 2.83882 0.507485 2.74258 0.702002 2.71588L0.812503 2.70829H6.50003Z" fill="white"/>
</svg>
