<svg width="26" height="22" viewBox="0 0 26 22" fill="none" xmlns="http://www.w3.org/2000/svg">
<path d="M16.247 4.87405C15.6479 4.87405 15.1655 4.38664 15.1655 3.79262V2.16794H10.8347V3.79262C10.8347 4.39172 10.3473 4.87405 9.7533 4.87405C9.15928 4.87405 8.67188 4.38664 8.67188 3.79262V2.16794C8.67188 0.97481 9.64161 0 10.8398 0H15.1706C16.3637 0 17.3385 0.969733 17.3385 2.16794V3.79262C17.3284 4.38664 16.8461 4.87405 16.247 4.87405Z" fill="white"/>
<path d="M13.7641 14.4898C13.5712 14.566 13.2869 14.6218 12.9975 14.6218C12.7081 14.6218 12.4237 14.566 12.1648 14.4695L0 10.418V18.6835C0 20.3285 1.33021 21.6638 2.98028 21.6638H23.0197C24.6647 21.6638 26 20.3336 26 18.6835V10.418L13.7641 14.4898Z" fill="white"/>
<path d="M25.9949 6.23028V8.713L13.2564 12.9575C13.1701 12.9879 13.0838 13.0032 12.9975 13.0032C12.9111 13.0032 12.8248 12.993 12.7385 12.9575L0 8.70792V6.2252C0 4.58021 1.33021 3.25 2.98028 3.25H23.0197C24.6647 3.25 25.9949 4.58021 25.9949 6.23028Z" fill="white"/>
</svg>
