<svg width="30" height="30" viewBox="0 0 30 30" fill="none" xmlns="http://www.w3.org/2000/svg">
<circle cx="15" cy="15" r="14" fill="#D8D8D8" stroke="white" stroke-width="2"/>
<path d="M15.0624 4.4082C12.0173 4.4082 9.53125 6.89422 9.53125 9.93473C9.53125 12.9752 12.0173 15.4613 15.0578 15.4613C18.0983 15.4613 20.5843 12.9752 20.5843 9.93473C20.5843 6.89422 18.1029 4.4082 15.0624 4.4082Z" fill="#4C5BD4"/>
<path d="M24.549 19.884C24.4057 19.5236 24.2116 19.1816 23.9945 18.872C22.8855 17.2316 21.1711 16.1457 19.2396 15.8777C18.9993 15.8546 18.7313 15.9008 18.5372 16.0487C17.5253 16.7973 16.3146 17.1854 15.0624 17.1854C13.8101 17.1854 12.5995 16.7926 11.5829 16.0441C11.3888 15.9008 11.1254 15.8269 10.8805 15.8731C8.949 16.1365 7.21156 17.227 6.12566 18.8674C5.90848 19.1816 5.71441 19.542 5.57116 19.8794C5.49723 20.0226 5.52495 20.1936 5.59426 20.3368C5.78834 20.6741 6.02862 21.0115 6.2458 21.3026C6.58312 21.76 6.94817 22.1713 7.35481 22.5594C7.69213 22.8968 8.08028 23.211 8.46381 23.5252C10.3722 24.9484 12.6642 25.697 15.03 25.697C17.3959 25.697 19.6878 24.9484 21.5962 23.5252C21.9844 23.2341 22.3679 22.8968 22.7052 22.5594C23.0934 22.1713 23.4769 21.7647 23.8142 21.3026C24.0545 20.9884 24.2717 20.6741 24.4658 20.3368C24.5952 20.1982 24.6229 20.0272 24.549 19.884Z" fill="#4C5BD4"/>
</svg>
