<svg width="26" height="23" viewBox="0 0 26 23" fill="none" xmlns="http://www.w3.org/2000/svg">
<path d="M23.4833 0H2.51607C1.13223 0 0 0.974773 0 2.16616C0 3.35755 1.13223 4.33232 2.51607 4.33232H23.4833C24.8672 4.33232 25.9994 3.35755 25.9994 2.16616C25.9994 0.974773 24.8672 0 23.4833 0Z" fill="#666666"/>
<path d="M23.4833 9.14746H2.51607C1.13223 9.14746 0 10.1222 0 11.3136C0 12.505 1.13223 13.4798 2.51607 13.4798H23.4833C24.8672 13.4798 25.9994 12.505 25.9994 11.3136C25.9994 10.1222 24.8672 9.14746 23.4833 9.14746Z" fill="#666666"/>
<path d="M23.4833 18.2959H2.51607C1.13223 18.2959 0 19.2707 0 20.4621C0 21.6535 1.13223 22.6282 2.51607 22.6282H23.4833C24.8672 22.6282 25.9994 21.6535 25.9994 20.4621C25.9994 19.2707 24.8672 18.2959 23.4833 18.2959Z" fill="#666666"/>
</svg>
